<?xml version="1.0" encoding="UTF-8"?>
<svg id="Layer_1" data-name="Layer 1" xmlns="http://www.w3.org/2000/svg" viewBox="0 0 310.71 135.16">
  <defs>
    <style>
      .cls-1 {
        fill: #fff;
      }
    </style>
  </defs>
  <path class="cls-1" d="M0,27.14h47.52c27.31-.56,38.35,12.42,38.29,32.49-.06,17.93-10.69,32.18-38.29,32.65H12.09l-.15,30.56L0,135.16S0,27.14,0,27.14ZM47.69,81.61c19.1-.82,25.96-10.24,25.86-21.98-.11-12.65-6.88-22.18-25.86-22.18H12.09v44.16h35.6Z"/>
  <path class="cls-1" d="M141.46,0h10.99l-61.42,135.16h-10.56L141.46,0Z"/>
  <polygon class="cls-1" points="169.32 0 180.94 0 119.53 135.16 108.97 135.16 169.32 0"/>
  <polygon class="cls-1" points="134.92 14.48 130.07 25.26 188.4 135.11 199.1 135.11 134.92 14.48"/>
  <path class="cls-1" d="M199.72,81.22c-1.02-61.25,87.89-73.81,107.96-19.33h-12.61c-19.12-40.24-84.92-27.71-83.84,19.32-1.21,51.91,77.39,59.72,87.35,10.14l-286.48.94L0,81.64l310.71-.75v5.39c-5.81,67.51-111.34,63.83-110.99-5.07h0,0Z"/>
</svg>